<svg width="22" height="25" fill="none" xmlns="http://www.w3.org/2000/svg"><path d="M9.916.073a4.955 4.955 0 00-2.868 1.62c-.967 1.083-1.39 2.311-1.39 4.018v.716H3.905c-1.714 0-1.75 0-1.87.101a.636.636 0 00-.168.227C1.828 6.862.122 23.533.09 24.103c-.014.261.077.493.237.575.191.107 20.5.107 20.692 0 .16-.082.25-.314.237-.575-.032-.57-1.737-17.241-1.778-17.348a.636.636 0 00-.169-.227c-.118-.101-.155-.101-1.824-.101H15.78v-.643c0-.784-.069-1.383-.21-1.915-.707-2.582-3.173-4.24-5.654-3.796zm1.496 1.103c1.55.319 2.704 1.436 3.164 3.065.105.368.123.532.146 1.3l.018.886H6.697l.023-.885c.022-.933.073-1.228.319-1.862.365-.943 1.217-1.832 2.143-2.248.67-.295 1.537-.396 2.23-.256zM5.657 7.993v.503l-.241.145c-.817.488-.98 1.658-.338 2.413.091.101.283.251.429.333.228.121.314.14.629.14.442 0 .78-.145 1.062-.459.306-.329.397-.58.397-1.088 0-.358-.018-.474-.105-.662-.132-.28-.406-.585-.647-.716l-.183-.096V7.49h8.026v.991l-.206.116c-.26.146-.547.474-.675.77-.077.173-.1.318-.1.613.005.493.123.798.452 1.127.296.3.588.42 1.007.42.42 0 .712-.12 1.008-.42.328-.329.447-.634.451-1.127 0-.295-.022-.44-.1-.614-.128-.295-.415-.623-.675-.769l-.205-.116V7.49l1.491.01 1.496.014.78 7.76c.433 4.27.797 7.886.811 8.041l.032.276H1.175l.023-.184c.013-.097.378-3.718.816-8.045l.793-7.872h2.85v.503zm.807 1.634c.11.097.192.339.164.484-.09.498-.802.498-.893 0-.032-.17.096-.45.241-.532.128-.068.383-.044.488.048zm9.029-.01c.383.247.214.87-.233.87-.401 0-.61-.473-.351-.792.155-.189.37-.218.584-.077z" fill="#fff"/></svg>