<svg width="20" height="19" fill="none" xmlns="http://www.w3.org/2000/svg"><g clip-path="url(#clip0_38_27)"><path d="M1.328 2.416C.703 2.53.16 3.058.04 3.674c-.055.267-.055 11.381 0 11.656.125.627.664 1.14 1.328 1.258.285.052 16.98.052 17.266 0 .664-.119 1.203-.63 1.328-1.258.055-.275.055-11.385 0-11.66-.125-.627-.664-1.139-1.328-1.258-.262-.048-17.05-.044-17.305.004zm17.086.772c.074.026-.82.82-5.926 5.228-2.054 1.778-1.98 1.719-2.156 1.793a.869.869 0 01-.668 0c-.148-.063-1.984-1.633-6.36-5.437C1.829 3.488 1.528 3.21 1.587 3.188c.098-.037 16.73-.037 16.828 0zM4.164 6.59a357 357 0 013.29 2.868c.003.019-.356.338-.802.713a199.302 199.302 0 00-4.242 3.703 78.486 78.486 0 01-1.508 1.332c-.02.008-.043-.026-.058-.074-.031-.111-.031-11.118 0-11.27a.564.564 0 01.035-.115c.008 0 1.484 1.277 3.285 2.843zm15.012 2.89c0 3.062-.008 5.604-.02 5.652-.015.049-.039.082-.058.075-.02-.008-.695-.605-1.508-1.333a199.32 199.32 0 00-4.242-3.703c-.446-.375-.805-.694-.801-.713a388.31 388.31 0 013.293-2.876c2.98-2.586 3.281-2.835 3.305-2.757.015.048.027 2.594.03 5.656zm-10.594.932c.668.568 1.086.727 1.664.642.383-.056.664-.211 1.176-.646.398-.341.469-.386.527-.345.47.349 2.637 2.223 4.88 4.22 1.484 1.32 1.679 1.51 1.6 1.532-.05.011-3.843.022-8.429.022s-8.379-.01-8.43-.022c-.078-.022.122-.211 1.602-1.533a349.8 349.8 0 012.414-2.133c.75-.657 2.496-2.13 2.52-2.13.007 0 .222.174.476.393z" fill="#fff"/></g><defs><clipPath id="clip0_38_27"><path fill="#fff" d="M0 0h20v19H0z"/></clipPath></defs></svg>