<svg width="16" height="17" fill="none" xmlns="http://www.w3.org/2000/svg"><g clip-path="url(#clip0_38_83)" fill="#fff"><path d="M4.411.434a4.14 4.14 0 00-1.506.528c-1.137.693-1.888 1.9-2.031 3.27-.044.413-.044 7.835 0 8.248.208 1.998 1.697 3.577 3.581 3.798.39.047 7.39.047 7.78 0 1.884-.22 3.373-1.8 3.581-3.798.044-.413.044-7.835 0-8.248-.208-1.999-1.697-3.578-3.582-3.798-.346-.04-7.486-.04-7.823 0zm8.128.997c.61.178 1.079.46 1.49.899.412.435.68.932.85 1.578l.075.299v8.298l-.076.298c-.17.647-.437 1.144-.85 1.58-.41.437-.88.72-1.489.9l-.281.081H4.432l-.282-.08a3.172 3.172 0 01-1.488-.902c-.414-.435-.68-.932-.85-1.579l-.077-.298V4.207l.077-.299c.17-.646.436-1.143.847-1.578a3.177 3.177 0 011.802-.964c.097-.015 1.89-.025 3.986-.022l3.81.004.282.083z"/><path d="M12.404 2.473c-.715.105-1.201.842-1.028 1.557.12.506.425.826.9.957.805.217 1.597-.556 1.462-1.43-.073-.488-.41-.898-.85-1.038a1.451 1.451 0 00-.484-.046zm.329.991c.158.106.184.364.052.51-.108.118-.24.146-.375.077a.346.346 0 01-.085-.55c.12-.121.261-.133.408-.037zm-4.953.587c-1.622.237-2.99 1.53-3.404 3.223a4.49 4.49 0 001.079 4.146c1.612 1.71 4.168 1.71 5.78 0a4.488 4.488 0 000-6.128c-.926-.98-2.166-1.427-3.456-1.24zm1.034.933a3.08 3.08 0 011.802.963c1.264 1.337 1.264 3.481 0 4.818-1.26 1.34-3.282 1.34-4.543 0-1.263-1.337-1.263-3.481 0-4.818.73-.774 1.733-1.128 2.74-.963z"/></g><defs><clipPath id="clip0_38_83"><path fill="#fff" transform="translate(.841 .4)" d="M0 0h15.007v15.913H0z"/></clipPath></defs></svg>