<svg width="16" height="16" fill="none" xmlns="http://www.w3.org/2000/svg"><path d="M7.578.019c-1.5.14-2.737.71-3.747 1.719C2.434 3.133 1.82 5.14 2.22 6.971c.156.7.394 1.331.75 1.975.21.378 4.331 6.64 4.462 6.781.325.347.813.347 1.138 0 .078-.084 3.687-5.528 4.187-6.322.788-1.244 1.188-2.55 1.138-3.703-.04-.919-.222-1.647-.61-2.416a5.684 5.684 0 00-1.115-1.55A5.89 5.89 0 008.922.079c-.297-.047-1.1-.084-1.344-.06zm1.235.75c1.656.24 3.2 1.397 3.893 2.912.35.763.49 1.394.49 2.21 0 .384-.012.537-.08.859-.157.747-.413 1.39-.85 2.119-.388.65-4.222 6.428-4.266 6.428-.044 0-3.878-5.778-4.266-6.428-.409-.685-.65-1.26-.812-1.947-.253-1.072-.131-2.147.372-3.24.71-1.55 2.312-2.723 4.003-2.929A5.13 5.13 0 018.813.77z" fill="#fff"/><path d="M7.469 2.828a3.158 3.158 0 00-2.353 1.89 3.13 3.13 0 00.262 2.888c.447.678 1.075 1.125 1.903 1.353.288.079 1.15.079 1.438 0 .828-.228 1.456-.675 1.903-1.353a3.11 3.11 0 00.44-2.293A3.167 3.167 0 008.979 2.94a3.253 3.253 0 00-1.51-.113zm.834.675c.525.072.975.284 1.353.64a2.4 2.4 0 01.532 2.816 2.478 2.478 0 01-1.554 1.297c-.346.1-.921.1-1.268 0-1.21-.347-1.972-1.534-1.76-2.744a2.451 2.451 0 012.05-2.006 1.8 1.8 0 01.647-.003z" fill="#fff"/></svg>