<svg width="23" height="24" fill="none" xmlns="http://www.w3.org/2000/svg"><path d="M8.88.695C6.8.923 4.874 1.897 3.379 3.48a9.298 9.298 0 00-2.182 3.737 9.696 9.696 0 000 5.81 9.225 9.225 0 002.19 3.74c2.056 2.168 4.857 3.152 7.746 2.718a8.921 8.921 0 004.15-1.806c.126-.102.24-.178.256-.174.017.009 1.293 1.332 2.835 2.94 1.756 1.833 2.864 2.955 2.965 3.004.413.206.876-.053.96-.536.068-.375.304-.107-4.313-4.943l-1.44-1.51.244-.305c1.053-1.291 1.748-2.927 2.013-4.715.101-.697.101-1.975 0-2.681-.299-2.052-1.145-3.813-2.556-5.3C14.309 1.414 11.609.4 8.88.694zm2.017 1.497a7.527 7.527 0 014.38 2.302c1.45 1.542 2.204 3.46 2.204 5.627 0 .8-.068 1.35-.245 2.042-.893 3.522-3.92 5.958-7.408 5.958-2.077 0-4.006-.836-5.447-2.364a8.079 8.079 0 01-1.983-3.625c-.312-1.238-.312-2.784 0-4.022.707-2.798 2.8-5.001 5.441-5.725.96-.264 2.136-.34 3.058-.193z" fill="#fff"/></svg>