<svg width="16" height="17" fill="none" xmlns="http://www.w3.org/2000/svg"><g clip-path="url(#clip0_38_17)"><path d="M3.068.408c-.243.067-.492.213-.747.446-.282.258-1.293 1.352-1.458 1.578-.67.908-.681 2.32-.033 4.144.789 2.228 2.268 4.484 4.14 6.317 2.58 2.528 6.036 4.163 7.815 3.704.264-.067.702-.284.903-.446.204-.163 1.56-1.642 1.686-1.836.234-.36.324-.841.234-1.25-.102-.455-.135-.497-1.44-1.886-1.317-1.4-1.36-1.435-1.794-1.53-.345-.077-.696-.01-1.035.197-.078.051-.45.411-.825.806l-.681.715-.22-.122c-.536-.296-.932-.58-1.523-1.096a14.788 14.788 0 01-1.92-2.107c-.34-.472-.837-1.342-.84-1.46 0-.022.234-.284.519-.58.6-.622.837-.912.972-1.186.168-.347.2-.787.084-1.15-.117-.37-.231-.51-1.377-1.731C4.394.73 4.22.57 3.896.453a1.59 1.59 0 00-.828-.045zm.696.896c.084.05.564.532 1.209 1.22 1.167 1.244 1.212 1.3 1.209 1.63 0 .29-.072.391-.855 1.223-.396.418-.741.803-.765.858-.036.067-.045.159-.036.315.009.191.033.265.216.65.414.874.96 1.642 1.863 2.624.897.975 1.79 1.702 2.712 2.206.327.178.39.204.54.2.102 0 .21-.022.273-.057.057-.032.429-.402.825-.82.51-.538.759-.777.855-.822a.681.681 0 01.579 0c.18.096 2.3 2.346 2.394 2.544.05.105.072.2.072.338 0 .328-.063.418-.915 1.326-.843.899-.921.96-1.371 1.068-.435.102-1.164.019-1.902-.214-1.125-.354-2.637-1.201-3.882-2.177-2.397-1.874-4.455-4.74-5.31-7.389-.408-1.259-.453-2.16-.141-2.83.096-.214.186-.322.81-.995.384-.414.753-.79.816-.838.27-.197.546-.22.804-.06z" fill="#fff"/></g><defs><clipPath id="clip0_38_17"><path fill="#fff" transform="translate(.32 .36)" d="M0 0h15.36v16.32H0z"/></clipPath></defs></svg>