<svg width="14" height="14" fill="none" xmlns="http://www.w3.org/2000/svg"><path d="M7.266 3.34C3.852 4.925 1.03 6.244.996 6.27a.435.435 0 00-.088.547c.036.052.475.296 1.575.876l1.523.802.375 2.382c.264 1.675.39 2.404.42 2.456.095.152.336.226.485.147.03-.017.592-.599 1.249-1.292l1.192-1.262 1.565 1.186c1.926 1.46 1.836 1.398 1.985 1.398.13 0 .259-.068.323-.172.056-.095 2.377-12.403 2.362-12.536a.369.369 0 00-.374-.346c-.098 0-1.136.476-6.322 2.883zm4.719 3.94a811.142 811.142 0 01-.972 5.107c-.005.009-1.026-.756-2.267-1.694l-2.26-1.708L9.71 5.553c1.772-1.887 3.226-3.415 3.231-3.399.003.016-.425 2.323-.956 5.126zM10.65 2.684c-.015.014-1.433 1.148-3.154 2.519L4.34 7.72c-.018.016-.442-.193-1.116-.544l-1.087-.568.102-.044c.057-.024 1.967-.914 4.245-1.971a652.74 652.74 0 014.167-1.931c.013-.003.013.005 0 .021zM8.612 5.562c-.443.476-1.318 1.408-1.941 2.075L5.54 8.847l-.039.19c-.023.103-.105.552-.187.993-.082.44-.151.788-.156.77a57.44 57.44 0 01-.198-1.216L4.773 8.4l2.31-1.85a289.067 289.067 0 012.324-1.849c.008-.002-.351.386-.795.86zM6.64 10.103l.46.348-.66.7c-.364.385-.664.69-.67.676-.007-.024.337-1.898.37-2.023.008-.025.02-.046.028-.046s.22.155.472.345z" fill="#fff"/></svg>