<svg width="18" height="19" fill="none" xmlns="http://www.w3.org/2000/svg"><path d="M8.784.741c-1.223.122-2.12.385-3.1.899-.514.269-.998.587-1.16.758-.165.168-.171.336-.03.49.129.133.307.14.469.01.438-.346 1.25-.79 1.876-1.02.897-.333 1.553-.445 2.572-.441.82 0 1.256.06 1.978.262 2.088.587 3.911 2.171 4.89 4.248.548 1.164.795 2.287.795 3.633.003.818-.043 1.241-.214 1.972-.488 2.098-1.755 3.909-3.525 5.038a7.336 7.336 0 01-5.955.874 6.731 6.731 0 01-1.372-.548l-.452-.228-1.494.427c-2.222.636-2.235.64-2.255.619-.01-.01.204-.868.478-1.902.274-1.035.498-1.913.498-1.951 0-.039-.102-.284-.228-.542a8.118 8.118 0 01-.85-3.497c-.05-1.741.35-3.258 1.243-4.734.125-.213.23-.42.23-.461a.379.379 0 00-.167-.315c-.225-.123-.357-.028-.65.45-.848 1.385-1.273 2.868-1.316 4.553-.036 1.553.244 2.902.884 4.255l.168.357-.567 2.157c-.409 1.542-.564 2.182-.547 2.248a.343.343 0 00.237.252c.063.018.702-.15 2.18-.577l2.09-.598.188.102a8.295 8.295 0 001.962.72c2.833.636 5.754-.304 7.742-2.49 1.283-1.408 2.051-3.097 2.309-5.08.056-.43.059-1.772.003-2.185-.228-1.696-.818-3.175-1.78-4.458A10.744 10.744 0 0014.59 2.64C13.054 1.363 11.224.699 9.328.724c-.234 0-.481.01-.544.017z" fill="#fff"/><path d="M8.656 2.154a6.978 6.978 0 00-2.361.727c-2.09 1.087-3.522 3.164-3.881 5.633-.056.391-.056 1.74 0 2.132.138.955.425 1.826.88 2.675.119.22.214.42.214.437 0 .021-.141.574-.313 1.224-.171.65-.313 1.241-.313 1.311 0 .158.148.332.277.332.046 0 .626-.157 1.292-.346l1.21-.346.317.185a6.98 6.98 0 002.295.843c.406.077 1.395.105 1.83.052a6.965 6.965 0 002.951-1.052c.314-.2.38-.28.38-.447 0-.154-.046-.238-.172-.308-.138-.077-.23-.05-.557.16a6.119 6.119 0 01-5.978.371 12.333 12.333 0 01-.577-.315c-.244-.143-.366-.195-.459-.195-.066.003-.544.126-1.061.276-.518.15-.944.27-.95.266a34.03 34.03 0 01.257-1c.145-.546.264-1.032.264-1.084 0-.05-.099-.27-.218-.49-.679-1.237-.97-2.321-.97-3.604 0-3.441 2.415-6.319 5.64-6.724 3.053-.385 5.948 1.63 6.841 4.759.205.713.258 1.115.258 1.954 0 .601-.01.808-.07 1.136a7.192 7.192 0 01-.88 2.458c-.181.305-.191.437-.053.588.112.115.3.14.422.049.073-.053.36-.546.535-.916a8.284 8.284 0 00.633-2.098c.095-.58.105-1.745.02-2.315-.287-1.87-1.125-3.444-2.48-4.647a6.802 6.802 0 00-5.223-1.681zM3.607 3.223c-.184.077-.273.312-.184.493.066.133.145.182.3.182.165 0 .313-.154.313-.328 0-.217-.25-.42-.429-.347z" fill="#fff"/><path d="M6.295 5.426c-.432.164-.769.493-.993.972a3.152 3.152 0 00-.171 2.255c.224.777.943 1.94 1.79 2.895.95 1.067 2.417 1.993 3.766 2.374.287.08.389.091.884.095.5.003.587-.004.807-.077.508-.171.845-.413 1.092-.79.194-.29.277-.56.31-.99.016-.248.01-.36-.03-.514-.092-.335-.171-.398-1.068-.863-.445-.231-.87-.434-.95-.455-.366-.098-.623.056-1.029.619-.174.248-.306.399-.343.399-.102 0-.372-.123-.652-.301-.686-.434-1.379-1.101-1.768-1.71l-.188-.294.162-.199c.461-.56.55-.77.481-1.122-.05-.234-.775-1.99-.867-2.095-.148-.167-.343-.234-.719-.248-.274-.01-.386 0-.514.05zM7 6.101c.056.031.696 1.538.746 1.752.02.08-.017.14-.248.42-.326.401-.395.534-.395.761 0 .577 1.137 1.892 2.248 2.595.488.311.72.398 1.036.398.24 0 .277-.01.389-.097.066-.056.237-.26.38-.455.391-.542.345-.514.672-.357.52.26 1.26.658 1.286.696.043.063-.01.588-.076.745a1.48 1.48 0 01-.478.556c-.337.206-.983.28-1.524.171-.844-.171-2.15-.856-2.977-1.57-1.049-.902-2.124-2.49-2.345-3.465-.188-.828.132-1.832.67-2.108.155-.08.51-.105.616-.042zm6.938 8.245c-.191.157-.152.486.07.584.112.052.164.045.303-.025.168-.084.194-.367.05-.521-.116-.119-.304-.136-.423-.038z" fill="#fff"/></svg>